# xmcd
#
# Track frame offsets:
#	150
#	11894
#	23928
#	42517
#	52636
#	66598
#	77333
#	94975
#	107864
#	118716
#	134401
#
# Disc length: 1928 seconds
# Revision: 0
# Processed by: cddbd v1.5.2PL0 Copyright (c) Steve Scherf et al.
# Submitted via: dBpowerAMP V12.0
#
DISCID=9407860b
DTITLE=SideLine - Session 2
DYEAR=2015
DGENRE=Country
TTITLE0=Mountain Girl
TTITLE1=I Won't Go Away
TTITLE2=Flora, The Lily Of The West
TTITLE3=I'd Rather Die Young
TTITLE4=Kentucky Country Home
TTITLE5=Don't Come Running
TTITLE6=Mountain Song
TTITLE7=Going Across The Sea
TTITLE8=Lord Don't Leave Me Here
TTITLE9=Rose In Paradise
TTITLE10=Handsome Molly
EXTD=
EXTT0=
EXTT1=
EXTT2=
EXTT3=
EXTT4=
EXTT5=
EXTT6=
EXTT7=
EXTT8=
EXTT9=
EXTT10=
PLAYORDER=
